<svg width="128" height="128" viewBox="0 0 128 128" fill="none" xmlns="http://www.w3.org/2000/svg">
<path d="M40 113.5L38.5205 114.846L38.4409 114.758L38.3724 114.662L40 113.5Z" fill="url(#paint0_linear_13_155)"/>
<path fill-rule="evenodd" clip-rule="evenodd" d="M96.7779 118.981C87.1907 124.709 75.9797 128 64 128C60.0586 128 56.2005 127.644 52.4559 126.962C52.3375 127.127 52.3374 127.127 52.3374 127.127L52.3345 127.125L52.2955 127.097L52.1778 127.013C52.1252 126.975 52.0604 126.929 51.9846 126.874C22.3819 121.251 0 95.2393 0 64C0 28.6538 28.6538 0 64 0C81.4897 0 97.3408 7.0155 108.893 18.3859C109.088 18.4411 109.243 18.4862 109.357 18.5196C109.429 18.5406 109.484 18.557 109.522 18.5684L109.566 18.5817L109.579 18.5855L109.584 18.587C109.584 18.5871 109.584 18.5872 109.47 18.9613C120.925 30.5255 128 46.4366 128 64C128 87.3623 115.482 107.801 96.7878 118.975C96.7883 118.979 96.7881 118.979 96.7878 118.979L96.7844 118.98L96.7779 118.981ZM90.4113 117.889C82.4419 121.803 73.4776 124 64 124C60.4512 124 56.9744 123.692 53.5949 123.101C53.3102 122.894 52.9814 122.653 52.6239 122.39C51.4432 121.52 49.9683 120.413 48.7494 119.438C47.6166 118.532 45.8276 116.75 44.2542 115.114C43.4831 114.312 42.7882 113.571 42.2859 113.03C42.035 112.759 41.8325 112.54 41.6933 112.388L41.5596 112.242C41.5469 112.224 41.5324 112.204 41.5164 112.181C41.4883 112.141 41.4551 112.094 41.4173 112.041C41.2804 111.846 41.0824 111.564 40.8397 111.213C40.354 110.512 39.6915 109.541 38.9839 108.464C37.5363 106.261 36.0086 103.776 35.3383 102.212C33.8618 98.7671 31.9387 93.9484 30.9767 87.6959C29.9785 81.2072 29.4798 77.7162 28.4799 70.7172C27.9533 67.0308 26.7807 63.141 25.764 60.218C25.2521 58.7463 24.7722 57.4985 24.4195 56.6166C24.2429 56.1753 24.0979 55.8248 23.9962 55.5827C23.9453 55.4616 23.9053 55.3676 23.8775 55.3028L23.8451 55.2278L23.8413 55.219L23.831 55.1942C23.8181 55.1636 23.8008 55.1233 23.7788 55.0737C23.7348 54.9743 23.6718 54.8371 23.587 54.6631C23.4175 54.3151 23.1607 53.8199 22.7934 53.1854C22.453 52.5975 22.0179 51.8903 21.4695 51.0699C23.0084 49.0738 24.8401 46.9617 27.0318 44.716L27.111 44.9145C31.1332 54.9922 37.7142 71.4811 47.9636 83.7804C58.5457 96.4789 73.0656 107.569 78.8496 111.636C83.6812 115.033 87.5285 116.888 90.4113 117.889ZM95.6115 115.007C95.0735 114.969 94.1893 114.849 92.9528 114.499C90.4673 113.796 86.5443 112.157 81.1504 108.364C75.4768 104.375 61.2877 93.5211 51.0364 81.2196C41.2058 69.4228 34.8286 53.4539 30.7757 43.3052L30.7748 43.303C30.6327 42.9471 30.4934 42.5984 30.357 42.2572C30.281 42.0674 30.206 41.8749 30.1318 41.68C30.2091 41.6075 30.2867 41.5349 30.3646 41.4621C32.7712 39.216 35.2021 37.1551 37.6509 35.2706C38.1749 36.8704 38.9839 38.4563 39.9609 39.9218C41.7302 42.5758 44.1879 45.0451 46.971 46.715C52.0165 49.7423 57.6801 52.8403 64.4118 54.9116C65.4144 55.2201 66.3246 55.5057 67.179 55.7739C71.8443 57.238 74.8469 58.1804 82.1524 59.4696C90.5646 60.9541 94.8513 62.4117 97.6056 63.7889C100.563 65.2675 107.323 69.1511 111.086 72.9142C112.986 74.814 115.541 77.9713 117.667 80.7229C118.72 82.0848 119.649 83.3238 120.315 84.2224C120.359 84.2819 120.402 84.34 120.444 84.3964C115.825 97.1784 106.987 107.942 95.6115 115.007ZM121.924 79.7025C121.581 79.2501 121.215 78.7717 120.833 78.2771C118.709 75.5287 116.014 72.186 113.914 70.0858C109.677 65.8489 102.437 61.7325 99.3944 60.2111C96.1487 58.5883 91.4355 57.0459 82.8476 55.5304C75.8019 54.2871 73.0048 53.4094 68.391 51.9617L68.3879 51.9607C67.5304 51.6917 66.6101 51.4029 65.5882 51.0884C59.3199 49.1597 53.9835 46.2577 49.029 43.285C46.8121 41.9549 44.7698 39.9241 43.2891 37.7031C42.1255 35.9577 41.3898 34.2191 41.1183 32.7269C52.5571 24.7395 64.3163 20.4596 75.7559 18.9836C83.217 18.0208 91.3648 18.8598 97.7182 19.9701C100.88 20.5227 103.566 21.1367 105.458 21.6117C105.97 21.7401 106.423 21.8582 106.811 21.9621C117.443 32.7879 124 47.6282 124 64C124 69.4331 123.278 74.6975 121.924 79.7025ZM100.571 16.4297C99.8778 16.2947 99.1551 16.1606 98.4068 16.0299C91.8852 14.8902 83.283 13.9792 75.2441 15.0164C63.8864 16.4819 52.3022 20.5574 41.0487 27.9437C41.0743 27.4162 41.1135 26.9239 41.1733 26.4258C41.3411 25.0269 41.6802 23.5263 42.4156 21.0747C43.7117 16.7545 47.7201 13.0863 51.1625 10.6275C52.7726 9.4774 55.89 7.7912 58.7227 6.34337C60.1149 5.63184 61.4 4.99698 62.3375 4.53987C62.8046 4.3121 63.1847 4.12879 63.4479 4.00249C63.6318 4.00083 63.8158 4 64 4C77.7648 4 90.4469 8.63512 100.571 16.4297ZM52.5622 5.08891C42.2567 7.078 32.8907 11.704 25.1941 18.237C25.2209 18.4721 25.2504 18.7261 25.2828 18.9975C25.4834 20.6793 25.7921 23.0253 26.224 25.6786C26.8292 29.3965 27.6655 33.6463 28.7628 37.5002C31.4784 35.0356 34.227 32.7912 37.0002 30.7562C37.0021 28.9043 37.0208 27.4571 37.2018 25.9492C37.4089 24.223 37.8198 22.4737 38.5843 19.9253C40.2883 14.2455 45.2799 9.91371 48.8375 7.37253C49.7892 6.69275 51.1194 5.89534 52.5622 5.08891ZM21.5756 21.5716C15.6165 27.5302 10.9048 34.7363 7.86613 42.7647C8.60557 42.6096 9.35363 42.5 10 42.5L10.0629 42.5C11.0681 42.4996 12.448 42.4992 14.0437 43.255C15.6124 43.9981 17.2017 45.3716 19.0264 47.7051C20.8336 45.4467 22.972 43.0763 25.5124 40.5728C24.0369 35.9592 22.9862 30.684 22.276 26.3214C21.9918 24.5756 21.7597 22.9605 21.5756 21.5716ZM6.35148 47.3113C4.82046 52.6093 4 58.2088 4 64C4 71.0742 5.22426 77.8624 7.47247 84.1643C7.57466 80.1603 7.8527 75.4929 8.53043 71.6524C9.28669 67.3669 10.1996 62.632 12.8943 57.1767C13.863 55.2159 15.0545 53.1757 16.5386 51.0353C16.3427 50.7744 16.137 50.5052 15.9213 50.2279C14.268 48.1021 13.1227 47.2448 12.3313 46.87C11.5855 46.5167 10.9898 46.5 10 46.5C9.33148 46.5 8.09444 46.7847 6.8247 47.1657C6.66206 47.2144 6.50369 47.2633 6.35148 47.3113ZM11.4859 93.0446C18.5566 105.802 30.1408 115.71 44.0826 120.615C43.1646 119.731 42.2081 118.757 41.3708 117.886C40.5794 117.063 39.8681 116.304 39.3547 115.752C39.0979 115.475 38.8901 115.249 38.7462 115.093C38.6742 115.014 38.6182 114.953 38.5799 114.911L38.5214 114.847L38.5205 114.846C38.5204 114.846 38.5201 114.845 40 113.5C38.3725 114.662 38.3725 114.662 38.3724 114.662L38.3712 114.661L38.368 114.656L38.3564 114.64L38.3124 114.578C38.2742 114.524 38.2184 114.445 38.1472 114.344C38.0048 114.142 37.8005 113.85 37.5509 113.49C37.0523 112.77 36.371 111.772 35.6411 110.661C34.2137 108.489 32.4914 105.724 31.6617 103.788C30.1382 100.233 28.0613 95.0516 27.0233 88.3041C26.0216 81.7933 25.5203 78.2843 24.5203 71.2844L24.5201 71.2828C24.0467 67.9692 22.9693 64.359 21.986 61.532C21.4979 60.1287 21.0403 58.939 20.7055 58.1022C20.5383 57.6841 20.4021 57.3549 20.3085 57.1321C20.2617 57.0208 20.2256 56.9361 20.2016 56.8803L20.175 56.8185L20.1689 56.8043L20.1677 56.8016L20.1549 56.7724L20.1469 56.7524C20.1471 56.7527 20.1471 56.7527 20.1469 56.7524L20.1457 56.7494L20.1449 56.7475C20.1434 56.7441 20.1413 56.739 20.1384 56.7322C20.1343 56.7227 20.1287 56.71 20.1216 56.6939C20.0973 56.639 20.0547 56.5457 19.9911 56.415C19.8638 56.1537 19.6518 55.7426 19.3316 55.1896C19.2244 55.0043 19.1049 54.803 18.9724 54.5861C17.9857 56.1073 17.1673 57.5581 16.4807 58.9483C14.0504 63.868 13.2133 68.133 12.4696 72.3476C11.7485 76.4337 11.4994 81.6774 11.4373 85.9665C11.4064 88.097 11.4218 89.9659 11.445 91.3013C11.4566 91.9686 11.4701 92.5019 11.4806 92.8671C11.4825 92.9316 11.4842 92.9908 11.4859 93.0446Z" fill="url(#paint1_linear_13_155)"/>
<defs>
<linearGradient id="paint0_linear_13_155" x1="0" y1="0" x2="128" y2="130" gradientUnits="userSpaceOnUse">
<stop stop-color="#3D36FF"/>
<stop offset="1" stop-color="#31EBFF"/>
</linearGradient>
<linearGradient id="paint1_linear_13_155" x1="0" y1="0" x2="128" y2="130" gradientUnits="userSpaceOnUse">
<stop stop-color="#3D36FF"/>
<stop offset="1" stop-color="#31EBFF"/>
</linearGradient>
</defs>
</svg>
