<svg width="144" height="89" viewBox="0 0 144 89" fill="none" xmlns="http://www.w3.org/2000/svg">
<path d="M108.531 65.0537C111.472 59.9174 113.345 54.0975 113.85 47.8949C113.872 47.7549 113.88 47.6125 113.882 47.4676C113.952 46.4866 114 45.4995 114 44.5C114 21.6166 95.3834 3 72.5 3C66.1475 3 60.1244 4.43919 54.7368 7.00175C54.6451 7.03766 54.5559 7.08101 54.4667 7.12684C40.5913 13.8497 31 28.0756 31 44.5C31 51.9771 32.9978 58.9935 36.4731 65.0586C36.5351 65.1837 36.6032 65.3026 36.68 65.419C39.7305 70.6222 43.8796 75.1045 48.8103 78.5452C48.9515 78.6665 49.1051 78.7755 49.2698 78.8721C55.9035 83.3693 63.9008 86 72.5 86C87.7564 86 101.107 77.7191 108.318 65.4215C108.398 65.3039 108.467 65.1813 108.531 65.0537ZM89.67 42.8453C83.3905 40.2443 77.2783 39.5594 73.0276 40.8711C71.2961 38.9785 69.4383 34.9013 68.746 29.6325C68.637 28.8088 68.5342 27.7214 68.4921 26.468C75.9679 24.2869 85.2471 25.9639 93.7807 31.1398C101.283 35.6914 106.885 42.34 107.552 47.4279C107.307 50.393 106.693 53.254 105.754 55.9677C102.317 50.3856 96.7408 45.7745 89.67 42.8453ZM61.5029 55.1849C60.844 55.6915 59.9548 56.3232 58.8908 56.9858C53.2641 51.6018 50.0736 42.7289 50.2904 32.7487C50.4799 23.9711 53.4412 15.7917 57.5173 12.6731C60.122 11.4419 62.9013 10.5229 65.8069 9.96187C62.6895 15.731 61.4831 22.8663 62.4826 30.4561C63.3694 37.195 65.8317 42.8304 69.094 45.8562C68.3224 48.3023 65.7189 51.9498 61.5029 55.1849ZM105.475 32.2371C103.062 29.8777 100.226 27.6632 97.0567 25.7397C87.671 20.0461 77.7019 18.0075 68.9689 19.838C69.6191 16.3367 71.0397 12.5752 73.8587 9.34879C88.3596 9.9049 100.637 19.2696 105.475 32.2371ZM45.3857 22.1046C44.5534 25.3657 44.0555 28.9191 43.9763 32.6137C43.7385 43.5884 46.9574 53.2404 52.9111 59.8889C49.5547 61.0755 45.5888 61.7269 41.3852 60.8984C38.7917 55.9987 37.3166 50.419 37.3166 44.5C37.3166 35.9986 40.3473 28.192 45.3857 22.1046ZM45.9703 67.5704C52.5148 67.3772 59.2872 64.8481 65.3486 60.1961C70.74 56.0594 74.39 51.1089 75.3796 46.7715C77.884 46.2179 82.344 46.6489 87.2536 48.6826C88.0215 49.0009 89.0148 49.4554 90.1208 50.045C88.2716 57.6088 82.1829 64.8072 73.4326 69.6091C65.7598 73.8189 57.225 75.3485 52.4789 73.4064C50.0724 71.7356 47.8876 69.7738 45.9703 67.5704ZM72.5 79.6834C70.5084 79.6834 68.5589 79.5088 66.6565 79.1892C69.899 78.2801 73.2283 76.9252 76.4695 75.1466C86.0906 69.8654 92.8406 62.2521 95.6224 53.773C98.3262 56.0841 100.871 59.1904 102.257 63.2392C96.0188 73.1092 85.0155 79.6834 72.5 79.6834Z" fill="url(#paint0_linear_13_52)"/>
<path d="M12.0602 38.336C10.7162 38.336 9.47622 38.12 8.34022 37.688C7.20422 37.256 6.21222 36.648 5.36422 35.864C4.53222 35.064 3.88422 34.136 3.42022 33.08C2.95622 32.024 2.72422 30.864 2.72422 29.6C2.72422 28.336 2.95622 27.176 3.42022 26.12C3.88422 25.064 4.53222 24.144 5.36422 23.36C6.21222 22.56 7.20422 21.944 8.34022 21.512C9.47622 21.08 10.7162 20.864 12.0602 20.864C13.4202 20.864 14.6602 21.08 15.7802 21.512C16.9162 21.944 17.9002 22.56 18.7322 23.36C19.5642 24.144 20.2122 25.064 20.6762 26.12C21.1562 27.176 21.3962 28.336 21.3962 29.6C21.3962 30.864 21.1562 32.032 20.6762 33.104C20.2122 34.16 19.5642 35.08 18.7322 35.864C17.9002 36.648 16.9162 37.256 15.7802 37.688C14.6602 38.12 13.4202 38.336 12.0602 38.336ZM12.0602 34.4C12.7002 34.4 13.2922 34.288 13.8362 34.064C14.3962 33.84 14.8762 33.52 15.2762 33.104C15.6922 32.672 16.0122 32.16 16.2362 31.568C16.4762 30.976 16.5962 30.32 16.5962 29.6C16.5962 28.864 16.4762 28.208 16.2362 27.632C16.0122 27.04 15.6922 26.536 15.2762 26.12C14.8762 25.688 14.3962 25.36 13.8362 25.136C13.2922 24.912 12.7002 24.8 12.0602 24.8C11.4202 24.8 10.8202 24.912 10.2602 25.136C9.71622 25.36 9.23622 25.688 8.82022 26.12C8.42022 26.536 8.10022 27.04 7.86022 27.632C7.63622 28.208 7.52422 28.864 7.52422 29.6C7.52422 30.32 7.63622 30.976 7.86022 31.568C8.10022 32.16 8.42022 32.672 8.82022 33.104C9.23622 33.52 9.71622 33.84 10.2602 34.064C10.8202 34.288 11.4202 34.4 12.0602 34.4ZM25.377 38V21.2H39.417V24.872H30.057V27.584H34.401C36.449 27.584 38.009 28.016 39.081 28.88C40.169 29.744 40.713 30.992 40.713 32.624C40.713 34.304 40.105 35.624 38.889 36.584C37.673 37.528 35.969 38 33.777 38H25.377ZM30.057 34.592H33.465C34.249 34.592 34.849 34.432 35.265 34.112C35.697 33.792 35.913 33.336 35.913 32.744C35.913 31.56 35.097 30.968 33.465 30.968H30.057V34.592ZM55.8381 21.2H60.5901V38H55.8381V21.2ZM49.3581 38H44.6061V21.2H49.3581V38ZM56.1741 31.448H49.0221V27.512H56.1741V31.448ZM65.6398 38V21.2H70.3198V31.064L77.2558 21.2H81.7198V38H77.0398V28.16L70.1278 38H65.6398ZM97.9993 21.2H102.751V38H97.9993V21.2ZM91.5193 38H86.7673V21.2H91.5193V38ZM98.3353 31.448H91.1833V27.512H98.3353V31.448ZM115.985 38.336C114.657 38.336 113.425 38.128 112.289 37.712C111.169 37.28 110.193 36.672 109.361 35.888C108.545 35.104 107.905 34.184 107.441 33.128C106.977 32.056 106.745 30.88 106.745 29.6C106.745 28.32 106.977 27.152 107.441 26.096C107.905 25.024 108.545 24.096 109.361 23.312C110.193 22.528 111.169 21.928 112.289 21.512C113.425 21.08 114.657 20.864 115.985 20.864C117.537 20.864 118.921 21.136 120.137 21.68C121.369 22.224 122.393 23.008 123.209 24.032L120.185 26.768C119.641 26.128 119.041 25.64 118.385 25.304C117.745 24.968 117.025 24.8 116.225 24.8C115.537 24.8 114.905 24.912 114.329 25.136C113.753 25.36 113.257 25.688 112.841 26.12C112.441 26.536 112.121 27.04 111.881 27.632C111.657 28.224 111.545 28.88 111.545 29.6C111.545 30.32 111.657 30.976 111.881 31.568C112.121 32.16 112.441 32.672 112.841 33.104C113.257 33.52 113.753 33.84 114.329 34.064C114.905 34.288 115.537 34.4 116.225 34.4C117.025 34.4 117.745 34.232 118.385 33.896C119.041 33.56 119.641 33.072 120.185 32.432L123.209 35.168C122.393 36.176 121.369 36.96 120.137 37.52C118.921 38.064 117.537 38.336 115.985 38.336ZM137.404 38L132.676 30.008L136.492 27.752L142.756 38H137.404ZM126.7 38V21.2H131.428V38H126.7ZM130.06 31.568V27.728H136.156V31.568H130.06ZM136.948 30.104L132.556 29.624L137.716 21.2H142.708L136.948 30.104ZM34.7798 67.336C33.4518 67.336 32.2198 67.128 31.0838 66.712C29.9638 66.28 28.9878 65.672 28.1558 64.888C27.3398 64.104 26.6998 63.184 26.2358 62.128C25.7718 61.056 25.5398 59.88 25.5398 58.6C25.5398 57.32 25.7718 56.152 26.2358 55.096C26.6998 54.024 27.3398 53.096 28.1558 52.312C28.9878 51.528 29.9638 50.928 31.0838 50.512C32.2198 50.08 33.4518 49.864 34.7798 49.864C36.3318 49.864 37.7158 50.136 38.9318 50.68C40.1638 51.224 41.1878 52.008 42.0038 53.032L38.9798 55.768C38.4358 55.128 37.8358 54.64 37.1798 54.304C36.5398 53.968 35.8198 53.8 35.0198 53.8C34.3318 53.8 33.6998 53.912 33.1238 54.136C32.5478 54.36 32.0518 54.688 31.6358 55.12C31.2358 55.536 30.9158 56.04 30.6758 56.632C30.4518 57.224 30.3398 57.88 30.3398 58.6C30.3398 59.32 30.4518 59.976 30.6758 60.568C30.9158 61.16 31.2358 61.672 31.6358 62.104C32.0518 62.52 32.5478 62.84 33.1238 63.064C33.6998 63.288 34.3318 63.4 35.0198 63.4C35.8198 63.4 36.5398 63.232 37.1798 62.896C37.8358 62.56 38.4358 62.072 38.9798 61.432L42.0038 64.168C41.1878 65.176 40.1638 65.96 38.9318 66.52C37.7158 67.064 36.3318 67.336 34.7798 67.336ZM45.5905 67V50.2H61.3585V67H56.6545V52.912L57.7105 53.968H49.2385L50.2705 52.912V67H45.5905ZM74.6458 67.336C73.3018 67.336 72.0618 67.12 70.9258 66.688C69.7898 66.256 68.7978 65.648 67.9498 64.864C67.1178 64.064 66.4698 63.136 66.0058 62.08C65.5418 61.024 65.3098 59.864 65.3098 58.6C65.3098 57.336 65.5418 56.176 66.0058 55.12C66.4698 54.064 67.1178 53.144 67.9498 52.36C68.7978 51.56 69.7898 50.944 70.9258 50.512C72.0618 50.08 73.3018 49.864 74.6458 49.864C76.0058 49.864 77.2458 50.08 78.3658 50.512C79.5018 50.944 80.4858 51.56 81.3178 52.36C82.1498 53.144 82.7978 54.064 83.2618 55.12C83.7418 56.176 83.9818 57.336 83.9818 58.6C83.9818 59.864 83.7418 61.032 83.2618 62.104C82.7978 63.16 82.1498 64.08 81.3178 64.864C80.4858 65.648 79.5018 66.256 78.3658 66.688C77.2458 67.12 76.0058 67.336 74.6458 67.336ZM74.6458 63.4C75.2858 63.4 75.8778 63.288 76.4218 63.064C76.9818 62.84 77.4618 62.52 77.8618 62.104C78.2778 61.672 78.5978 61.16 78.8218 60.568C79.0618 59.976 79.1818 59.32 79.1818 58.6C79.1818 57.864 79.0618 57.208 78.8218 56.632C78.5978 56.04 78.2778 55.536 77.8618 55.12C77.4618 54.688 76.9818 54.36 76.4218 54.136C75.8778 53.912 75.2858 53.8 74.6458 53.8C74.0058 53.8 73.4058 53.912 72.8458 54.136C72.3018 54.36 71.8218 54.688 71.4058 55.12C71.0058 55.536 70.6858 56.04 70.4458 56.632C70.2218 57.208 70.1098 57.864 70.1098 58.6C70.1098 59.32 70.2218 59.976 70.4458 60.568C70.6858 61.16 71.0058 61.672 71.4058 62.104C71.8218 62.52 72.3018 62.84 72.8458 63.064C73.4058 63.288 74.0058 63.4 74.6458 63.4ZM87.9627 67V50.2H95.6427C97.1787 50.2 98.4987 50.448 99.6027 50.944C100.723 51.44 101.587 52.16 102.195 53.104C102.803 54.032 103.107 55.136 103.107 56.416C103.107 57.68 102.803 58.776 102.195 59.704C101.587 60.632 100.723 61.352 99.6027 61.864C98.4987 62.36 97.1787 62.608 95.6427 62.608H90.6027L92.7147 60.544V67H87.9627ZM92.7147 61.048L90.6027 58.864H95.3547C96.3467 58.864 97.0827 58.648 97.5627 58.216C98.0587 57.784 98.3067 57.184 98.3067 56.416C98.3067 55.632 98.0587 55.024 97.5627 54.592C97.0827 54.16 96.3467 53.944 95.3547 53.944H90.6027L92.7147 51.76V61.048ZM109.998 67V52.912L111.054 53.968H104.838V50.2H119.814V53.968H113.622L114.678 52.912V67H109.998Z" fill="white"/>
<defs>
<linearGradient id="paint0_linear_13_52" x1="72.5" y1="3" x2="72.5" y2="86" gradientUnits="userSpaceOnUse">
<stop stop-color="#3D2CFF"/>
<stop offset="1" stop-color="#30F3FF"/>
</linearGradient>
</defs>
</svg>
