<svg width="47" height="46" viewBox="0 0 47 46" fill="none" xmlns="http://www.w3.org/2000/svg">
<path d="M11.1879 26.7892L1.01846 22.1213C0.23513 21.7617 0.243226 20.6458 1.03169 20.2977L45.2414 0.776525C45.9818 0.449596 46.7836 1.09181 46.6263 1.88573L38.1772 44.515C38.0314 45.2508 37.1574 45.57 36.5716 45.1014L25.0496 35.8838C24.6517 35.5655 24.0781 35.5973 23.7178 35.9576L19.824 39.8513C19.194 40.4813 18.1169 40.0355 18.1169 39.1446V30.1299C18.1169 29.419 24.5341 23.2366 30.0509 18.0531C30.9357 17.2218 29.8301 15.7743 28.7979 16.4133L12.1314 26.7307C11.8465 26.907 11.4923 26.929 11.1879 26.7892Z" fill="#E0E0E0"/>
</svg>
