<svg width="48" height="48" viewBox="0 0 48 48" fill="none" xmlns="http://www.w3.org/2000/svg">
<path d="M40 0H8C3.582 0 0 3.582 0 8V40C0 44.418 3.582 48 8 48H40C44.418 48 48 44.418 48 40V8C48 3.582 44.418 0 40 0ZM34.323 35C33.104 31.196 30.066 28.253 26.048 27.853V35H25.428C14.496 35 8.26 27.492 8 15H13.477C13.657 24.169 17.694 28.053 20.892 28.854V15H26.049V22.908C29.207 22.568 32.525 18.964 33.644 15H38.801C37.942 19.885 34.344 23.488 31.785 24.97C34.343 26.171 38.441 29.314 40 35H34.323Z" fill="#E0E0E0"/>
</svg>
