<svg width="128" height="128" viewBox="0 0 128 128" fill="none" xmlns="http://www.w3.org/2000/svg">
<path d="M119.565 95.6972C124.102 87.7763 126.99 78.801 127.769 69.2354C127.803 69.0196 127.815 68.7999 127.819 68.5765C127.925 67.0637 128 65.5414 128 64C128 28.7099 99.29 0 64 0C54.2034 0 44.9148 2.21948 36.6061 6.17137C36.4647 6.22676 36.3272 6.29361 36.1897 6.36428C14.7914 16.732 0 38.6708 0 64C0 75.531 3.08091 86.3514 8.4405 95.7049C8.53601 95.8978 8.64106 96.0812 8.75948 96.2607C13.4639 104.285 19.8626 111.197 27.4665 116.503C27.6842 116.691 27.9211 116.859 28.1751 117.008C38.4053 123.943 50.7385 128 64 128C87.528 128 108.116 115.229 119.237 96.2645C119.361 96.0831 119.468 95.894 119.565 95.6972ZM90.479 61.4482C80.795 57.4371 71.369 56.3808 64.8137 58.4035C62.1434 55.485 59.2784 49.1971 58.2106 41.0718C58.0426 39.8016 57.884 38.1246 57.8191 36.1916C69.3481 32.828 83.6582 35.4142 96.8184 43.3963C108.388 50.4157 117.027 60.6689 118.056 68.5153C117.678 73.088 116.731 77.5002 115.283 81.6851C109.982 73.0765 101.383 65.9654 90.479 61.4482ZM47.0407 80.478C46.0245 81.2592 44.6531 82.2333 43.0124 83.2552C34.335 74.9522 29.4147 61.2686 29.749 45.8774C30.0412 32.3409 34.6082 19.727 40.8941 14.9175C44.911 13.0189 49.1971 11.6016 53.6781 10.7364C48.8705 19.6334 47.0101 30.6372 48.5515 42.3419C49.9191 52.7345 53.7163 61.4252 58.7474 66.0915C57.5574 69.8638 53.5425 75.4889 47.0407 80.478ZM114.853 45.0886C111.132 41.45 106.758 38.0348 101.871 35.0685C87.3962 26.288 72.0222 23.1441 58.5544 25.9671C59.5572 20.5674 61.748 14.7666 66.0953 9.79091C88.4582 10.6485 107.392 25.0904 114.853 45.0886ZM22.1852 29.4625C20.9017 34.4916 20.1338 39.9716 20.0116 45.6693C19.6448 62.5942 24.6091 77.4792 33.7907 87.7323C28.6144 89.5622 22.4985 90.5668 16.0158 89.289C12.0161 81.7329 9.74125 73.1281 9.74125 64C9.74125 50.8894 14.4151 38.8504 22.1852 29.4625ZM23.0868 99.5785C33.1795 99.2805 43.6236 95.3802 52.9714 88.206C61.2858 81.8265 66.9147 74.192 68.4408 67.503C72.303 66.6492 79.181 67.3139 86.7525 70.4502C87.9367 70.9411 89.4686 71.6421 91.1742 72.5513C88.3225 84.2159 78.9327 95.3171 65.4382 102.722C53.6055 109.215 40.4434 111.574 33.1241 108.579C29.4128 106.002 26.0435 102.976 23.0868 99.5785ZM64 118.259C60.9286 118.259 57.9222 117.989 54.9884 117.497C59.9889 116.095 65.1231 114.005 70.1217 111.262C84.959 103.118 95.3687 91.3767 99.6587 78.3005C103.828 81.8647 107.753 86.6551 109.891 92.899C100.27 108.12 83.301 118.259 64 118.259Z" fill="url(#paint0_linear_13_157)"/>
<defs>
<linearGradient id="paint0_linear_13_157" x1="64" y1="0" x2="64" y2="128" gradientUnits="userSpaceOnUse">
<stop stop-color="#3D2CFF"/>
<stop offset="1" stop-color="#30F3FF"/>
</linearGradient>
</defs>
</svg>
