<svg width="48" height="36" viewBox="0 0 48 36" fill="none" xmlns="http://www.w3.org/2000/svg">
<path fill-rule="evenodd" clip-rule="evenodd" d="M6.18292 1.32178C2.65228 1.68872 0 4.67517 0 8.22473V27.7347C0 31.3015 2.67859 34.2972 6.22748 34.6545C12.0199 35.2379 20.2963 36 24 36C27.7037 36 35.9801 35.2379 41.7725 34.6545C45.3214 34.2972 48 31.3015 48 27.7347V8.22473C48 4.67517 45.3477 1.68872 41.8171 1.32178C36.2349 0.741821 28.263 0 24 0C19.737 0 11.7651 0.741821 6.18292 1.32178ZM22.085 11.219C20.7516 10.4492 19.085 11.4114 19.085 12.951V23.0491C19.085 24.5886 20.7516 25.5509 22.085 24.7811L30.8301 19.7321C32.1635 18.9623 32.1635 17.0378 30.8301 16.2679L22.085 11.219Z" fill="#E0E0E0"/>
</svg>
